# xmcd CD database file
#
# Track frame offsets:
#	150
#	17898
#	33182
#	50350
#	60626
#	74165
#	93201
#	107517
#	129180
#	137644
#	160912
#	176293
#	184807
#	201658
#	217159
#
# Disc length: 3131 seconds
#
# Revision: 0
# Processed by: cddbd v1.5.2PL0 Copyright (c) Steve Scherf et al.
# Submitted via: CDex 1.51
#
DISCID=d70c390f
DTITLE=Compilation - Mistakes Were Made - Disc 1
DYEAR=2011
DGENRE=Blues
TTITLE0=Odell Harris - Train I Ride
TTITLE1=Jimmy "Duck" Holmes - Six Little Puppies
TTITLE2=Wesley "Junebug" Jefferson - The Wolves Are Howling
TTITLE3=Terry "Harmonica" Bean - Pretty Baby
TTITLE4=Pat Thomas - Woke Up This Morning
TTITLE5=The Mississippi Marvel - Everything's Gonna Be Alright
TTITLE6=Terry "Big T" Williams - Taking Chances
TTITLE7=Jimmy "Duck" Holmes - It's Over
TTITLE8=Bill Abel - The Mississippi Diddley
TTITLE9=R.L. Boyce Y Lightnin' Malcolm - Ain't It Alright
TTITLE10=Jimmy "Duck" Holmes - All Night Long
TTITLE11=Terry "Harmonica" Bean - Bean's Boogie
TTITLE12=The Mississippi Marvel - Big Road Blues
TTITLE13=Pat Thomas - Beefsteak Blues
TTITLE14=Wesley "Junebug" Jefferson - Cooter Mae
EXTD=YEAR: 2011
EXTT0=
EXTT1=
EXTT2=
EXTT3=
EXTT4=
EXTT5=
EXTT6=
EXTT7=
EXTT8=
EXTT9=
EXTT10=
EXTT11=
EXTT12=
EXTT13=
EXTT14=
PLAYORDER=
